<?xml version="1.0" encoding="utf-8" standalone="no"?>
<!DOCTYPE svg PUBLIC "-//W3C//DTD SVG 1.1//EN"
  "http://www.w3.org/Graphics/SVG/1.1/DTD/svg11.dtd">
<svg xmlns:xlink="http://www.w3.org/1999/xlink" width="460.8pt" height="345.6pt" viewBox="0 0 460.8 345.6" xmlns="http://www.w3.org/2000/svg" version="1.1">
 <metadata>
  <rdf:RDF xmlns:dc="http://purl.org/dc/elements/1.1/" xmlns:cc="http://creativecommons.org/ns#" xmlns:rdf="http://www.w3.org/1999/02/22-rdf-syntax-ns#">
   <cc:Work>
    <dc:type rdf:resource="http://purl.org/dc/dcmitype/StillImage"/>
    <dc:date>2025-01-29T13:18:26.966475</dc:date>
    <dc:format>image/svg+xml</dc:format>
    <dc:creator>
     <cc:Agent>
      <dc:title>Matplotlib v3.9.3, https://matplotlib.org/</dc:title>
     </cc:Agent>
    </dc:creator>
   </cc:Work>
  </rdf:RDF>
 </metadata>
 <defs>
  <style type="text/css">*{stroke-linejoin: round; stroke-linecap: butt}</style>
 </defs>
 <g id="figure_1">
  <g id="patch_1">
   <path d="M 0 345.6 
L 460.8 345.6 
L 460.8 0 
L 0 0 
z
" style="fill: #ffffff"/>
  </g>
  <g id="axes_1">
   <g id="patch_2">
    <path d="M 169.551835 250.950515 
C 150.249398 230.192689 139.510313 202.873571 139.510313 174.528 
C 139.510313 146.182429 150.249398 118.863311 169.551835 98.105485 
C 152.190233 101.995377 136.661918 111.687802 125.541051 125.576027 
C 114.420183 139.464252 108.357214 156.735965 108.357214 174.528 
C 108.357214 192.320035 114.420183 209.591748 125.541051 223.479973 
C 136.661918 237.368198 152.190233 247.060623 169.551835 250.950515 
" clip-path="url(#p79ad48e070)" style="fill: #87ceeb; opacity: 0.7"/>
   </g>
   <g id="patch_3">
    <path d="M 169.551835 98.105485 
C 181.00666 95.539014 192.893291 95.580493 204.329926 98.226845 
C 215.76656 100.873196 226.463222 106.057321 235.626384 113.394639 
C 244.789547 120.731957 252.186879 130.036429 257.269613 140.617809 
C 262.352347 151.199189 264.991609 162.789185 264.991609 174.528 
C 264.991609 186.266815 262.352347 197.856811 257.269613 208.438191 
C 252.186879 219.019571 244.789547 228.324043 235.626384 235.661361 
C 226.463222 242.998679 215.76656 248.182804 204.329926 250.829155 
C 192.893291 253.475507 181.00666 253.516986 169.551835 250.950515 
C 177.184399 259.158569 186.003726 266.177071 195.715803 271.772044 
C 205.427881 277.367017 215.923572 281.47559 226.852979 283.960792 
C 237.782386 286.445995 249.022692 287.279902 260.199178 286.434711 
C 271.375663 285.589521 282.362734 283.074732 292.794113 278.974181 
C 303.225491 274.873629 312.983956 269.233394 321.744187 262.241504 
C 330.504419 255.249615 338.167976 246.984641 344.479377 237.722115 
C 350.790777 228.459589 355.679099 218.303595 358.981378 207.592707 
C 362.283658 196.881819 363.962786 185.736397 363.962786 174.528 
C 363.962786 163.319603 362.283658 152.174181 358.981378 141.463293 
C 355.679099 130.752405 350.790777 120.596411 344.479377 111.333885 
C 338.167976 102.071359 330.504419 93.806385 321.744187 86.814496 
C 312.983956 79.822606 303.225491 74.182371 292.794113 70.081819 
C 282.362734 65.981268 271.375663 63.466479 260.199178 62.621289 
C 249.022692 61.776098 237.782386 62.610005 226.852979 65.095208 
C 215.923572 67.58041 205.427881 71.688983 195.715803 77.283956 
C 186.003726 82.878929 177.184399 89.897431 169.551835 98.105485 
" clip-path="url(#p79ad48e070)" style="fill: #ff7f0e; opacity: 0.7"/>
   </g>
   <g id="patch_4">
    <path d="M 169.551835 250.950515 
C 181.00666 253.516986 192.893291 253.475507 204.329926 250.829155 
C 215.76656 248.182804 226.463222 242.998679 235.626384 235.661361 
C 244.789547 228.324043 252.186879 219.019571 257.269613 208.438191 
C 262.352347 197.856811 264.991609 186.266815 264.991609 174.528 
C 264.991609 162.789185 262.352347 151.199189 257.269613 140.617809 
C 252.186879 130.036429 244.789547 120.731957 235.626384 113.394639 
C 226.463222 106.057321 215.76656 100.873196 204.329926 98.226845 
C 192.893291 95.580493 181.00666 95.539014 169.551835 98.105485 
C 150.249398 118.863311 139.510313 146.182429 139.510313 174.528 
C 139.510313 202.873571 150.249398 230.192689 169.551835 250.950515 
" clip-path="url(#p79ad48e070)" style="fill: #ffe9ae; opacity: 0.7"/>
   </g>
   <g id="patch_5">
    <path d="M 186.674412 252.845198 
C 207.444375 252.845198 227.366451 244.593204 242.053033 229.906622 
C 256.739615 215.22004 264.991609 195.297964 264.991609 174.528 
C 264.991609 153.758036 256.739615 133.83596 242.053033 119.149378 
C 227.366451 104.462796 207.444375 96.210802 186.674412 96.210802 
C 165.904448 96.210802 145.982372 104.462796 131.29579 119.149378 
C 116.609208 133.83596 108.357214 153.758036 108.357214 174.528 
C 108.357214 195.297964 116.609208 215.22004 131.29579 229.906622 
C 145.982372 244.593204 165.904448 252.845198 186.674412 252.845198 
L 186.674412 252.845198 
z
" clip-path="url(#p79ad48e070)" style="fill: none; stroke: #000000; stroke-width: 2; stroke-linejoin: miter"/>
   </g>
   <g id="patch_6">
    <path d="M 251.73655 286.754236 
C 281.499296 286.754236 310.047043 274.929372 331.092483 253.883933 
C 352.137922 232.838493 363.962786 204.290746 363.962786 174.528 
C 363.962786 144.765254 352.137922 116.217507 331.092483 95.172067 
C 310.047043 74.126628 281.499296 62.301764 251.73655 62.301764 
C 221.973804 62.301764 193.426056 74.126628 172.380617 95.172067 
C 151.335177 116.217507 139.510313 144.765254 139.510313 174.528 
C 139.510313 204.290746 151.335177 232.838493 172.380617 253.883933 
C 193.426056 274.929372 221.973804 286.754236 251.73655 286.754236 
L 251.73655 286.754236 
z
" clip-path="url(#p79ad48e070)" style="fill: none; stroke: #000000; stroke-width: 2; stroke-linejoin: miter"/>
   </g>
   <g id="text_1">
    <!-- 297 -->
    <g transform="translate(114.390014 177.287375) scale(0.1 -0.1)">
     <defs>
      <path id="DejaVuSans-32" d="M 1228 531 
L 3431 531 
L 3431 0 
L 469 0 
L 469 531 
Q 828 903 1448 1529 
Q 2069 2156 2228 2338 
Q 2531 2678 2651 2914 
Q 2772 3150 2772 3378 
Q 2772 3750 2511 3984 
Q 2250 4219 1831 4219 
Q 1534 4219 1204 4116 
Q 875 4013 500 3803 
L 500 4441 
Q 881 4594 1212 4672 
Q 1544 4750 1819 4750 
Q 2544 4750 2975 4387 
Q 3406 4025 3406 3419 
Q 3406 3131 3298 2873 
Q 3191 2616 2906 2266 
Q 2828 2175 2409 1742 
Q 1991 1309 1228 531 
z
" transform="scale(0.015625)"/>
      <path id="DejaVuSans-39" d="M 703 97 
L 703 672 
Q 941 559 1184 500 
Q 1428 441 1663 441 
Q 2288 441 2617 861 
Q 2947 1281 2994 2138 
Q 2813 1869 2534 1725 
Q 2256 1581 1919 1581 
Q 1219 1581 811 2004 
Q 403 2428 403 3163 
Q 403 3881 828 4315 
Q 1253 4750 1959 4750 
Q 2769 4750 3195 4129 
Q 3622 3509 3622 2328 
Q 3622 1225 3098 567 
Q 2575 -91 1691 -91 
Q 1453 -91 1209 -44 
Q 966 3 703 97 
z
M 1959 2075 
Q 2384 2075 2632 2365 
Q 2881 2656 2881 3163 
Q 2881 3666 2632 3958 
Q 2384 4250 1959 4250 
Q 1534 4250 1286 3958 
Q 1038 3666 1038 3163 
Q 1038 2656 1286 2365 
Q 1534 2075 1959 2075 
z
" transform="scale(0.015625)"/>
      <path id="DejaVuSans-37" d="M 525 4666 
L 3525 4666 
L 3525 4397 
L 1831 0 
L 1172 0 
L 2766 4134 
L 525 4134 
L 525 4666 
z
" transform="scale(0.015625)"/>
     </defs>
     <use xlink:href="#DejaVuSans-32"/>
     <use xlink:href="#DejaVuSans-39" x="63.623047"/>
     <use xlink:href="#DejaVuSans-37" x="127.246094"/>
    </g>
   </g>
   <g id="text_2">
    <!-- 1875 -->
    <g transform="translate(301.752198 177.287375) scale(0.1 -0.1)">
     <defs>
      <path id="DejaVuSans-31" d="M 794 531 
L 1825 531 
L 1825 4091 
L 703 3866 
L 703 4441 
L 1819 4666 
L 2450 4666 
L 2450 531 
L 3481 531 
L 3481 0 
L 794 0 
L 794 531 
z
" transform="scale(0.015625)"/>
      <path id="DejaVuSans-38" d="M 2034 2216 
Q 1584 2216 1326 1975 
Q 1069 1734 1069 1313 
Q 1069 891 1326 650 
Q 1584 409 2034 409 
Q 2484 409 2743 651 
Q 3003 894 3003 1313 
Q 3003 1734 2745 1975 
Q 2488 2216 2034 2216 
z
M 1403 2484 
Q 997 2584 770 2862 
Q 544 3141 544 3541 
Q 544 4100 942 4425 
Q 1341 4750 2034 4750 
Q 2731 4750 3128 4425 
Q 3525 4100 3525 3541 
Q 3525 3141 3298 2862 
Q 3072 2584 2669 2484 
Q 3125 2378 3379 2068 
Q 3634 1759 3634 1313 
Q 3634 634 3220 271 
Q 2806 -91 2034 -91 
Q 1263 -91 848 271 
Q 434 634 434 1313 
Q 434 1759 690 2068 
Q 947 2378 1403 2484 
z
M 1172 3481 
Q 1172 3119 1398 2916 
Q 1625 2713 2034 2713 
Q 2441 2713 2670 2916 
Q 2900 3119 2900 3481 
Q 2900 3844 2670 4047 
Q 2441 4250 2034 4250 
Q 1625 4250 1398 4047 
Q 1172 3844 1172 3481 
z
" transform="scale(0.015625)"/>
      <path id="DejaVuSans-35" d="M 691 4666 
L 3169 4666 
L 3169 4134 
L 1269 4134 
L 1269 2991 
Q 1406 3038 1543 3061 
Q 1681 3084 1819 3084 
Q 2600 3084 3056 2656 
Q 3513 2228 3513 1497 
Q 3513 744 3044 326 
Q 2575 -91 1722 -91 
Q 1428 -91 1123 -41 
Q 819 9 494 109 
L 494 744 
Q 775 591 1075 516 
Q 1375 441 1709 441 
Q 2250 441 2565 725 
Q 2881 1009 2881 1497 
Q 2881 1984 2565 2268 
Q 2250 2553 1709 2553 
Q 1456 2553 1204 2497 
Q 953 2441 691 2322 
L 691 4666 
z
" transform="scale(0.015625)"/>
     </defs>
     <use xlink:href="#DejaVuSans-31"/>
     <use xlink:href="#DejaVuSans-38" x="63.623047"/>
     <use xlink:href="#DejaVuSans-37" x="127.246094"/>
     <use xlink:href="#DejaVuSans-35" x="190.869141"/>
    </g>
   </g>
   <g id="text_3">
    <!-- 1201 -->
    <g transform="translate(189.525961 177.287375) scale(0.1 -0.1)">
     <defs>
      <path id="DejaVuSans-30" d="M 2034 4250 
Q 1547 4250 1301 3770 
Q 1056 3291 1056 2328 
Q 1056 1369 1301 889 
Q 1547 409 2034 409 
Q 2525 409 2770 889 
Q 3016 1369 3016 2328 
Q 3016 3291 2770 3770 
Q 2525 4250 2034 4250 
z
M 2034 4750 
Q 2819 4750 3233 4129 
Q 3647 3509 3647 2328 
Q 3647 1150 3233 529 
Q 2819 -91 2034 -91 
Q 1250 -91 836 529 
Q 422 1150 422 2328 
Q 422 3509 836 4129 
Q 1250 4750 2034 4750 
z
" transform="scale(0.015625)"/>
     </defs>
     <use xlink:href="#DejaVuSans-31"/>
     <use xlink:href="#DejaVuSans-32" x="63.623047"/>
     <use xlink:href="#DejaVuSans-30" x="127.246094"/>
     <use xlink:href="#DejaVuSans-31" x="190.869141"/>
    </g>
   </g>
   <g id="text_4">
    <!-- MITFA -->
    <g transform="translate(151.435662 271.490495) scale(0.12 -0.12)">
     <defs>
      <path id="DejaVuSans-4d" d="M 628 4666 
L 1569 4666 
L 2759 1491 
L 3956 4666 
L 4897 4666 
L 4897 0 
L 4281 0 
L 4281 4097 
L 3078 897 
L 2444 897 
L 1241 4097 
L 1241 0 
L 628 0 
L 628 4666 
z
" transform="scale(0.015625)"/>
      <path id="DejaVuSans-49" d="M 628 4666 
L 1259 4666 
L 1259 0 
L 628 0 
L 628 4666 
z
" transform="scale(0.015625)"/>
      <path id="DejaVuSans-54" d="M -19 4666 
L 3928 4666 
L 3928 4134 
L 2272 4134 
L 2272 0 
L 1638 0 
L 1638 4134 
L -19 4134 
L -19 4666 
z
" transform="scale(0.015625)"/>
      <path id="DejaVuSans-46" d="M 628 4666 
L 3309 4666 
L 3309 4134 
L 1259 4134 
L 1259 2759 
L 3109 2759 
L 3109 2228 
L 1259 2228 
L 1259 0 
L 628 0 
L 628 4666 
z
" transform="scale(0.015625)"/>
      <path id="DejaVuSans-41" d="M 2188 4044 
L 1331 1722 
L 3047 1722 
L 2188 4044 
z
M 1831 4666 
L 2547 4666 
L 4325 0 
L 3669 0 
L 3244 1197 
L 1141 1197 
L 716 0 
L 50 0 
L 1831 4666 
z
" transform="scale(0.015625)"/>
     </defs>
     <use xlink:href="#DejaVuSans-4d"/>
     <use xlink:href="#DejaVuSans-49" x="86.279297"/>
     <use xlink:href="#DejaVuSans-54" x="115.771484"/>
     <use xlink:href="#DejaVuSans-46" x="176.855469"/>
     <use xlink:href="#DejaVuSans-41" x="225.25"/>
    </g>
   </g>
   <g id="text_5">
    <!-- MITFM -->
    <g transform="translate(251.73655 305.399533) scale(0.12 -0.12)">
     <use xlink:href="#DejaVuSans-4d"/>
     <use xlink:href="#DejaVuSans-49" x="86.279297"/>
     <use xlink:href="#DejaVuSans-54" x="115.771484"/>
     <use xlink:href="#DejaVuSans-46" x="176.855469"/>
     <use xlink:href="#DejaVuSans-4d" x="234.375"/>
    </g>
   </g>
  </g>
 </g>
 <defs>
  <clipPath id="p79ad48e070">
   <rect x="87.52745" y="41.472" width="297.265099" height="266.112"/>
  </clipPath>
 </defs>
</svg>
